
<!-- Generator: visioncortex VTracer 0.6.4 -->
<svg version="1.1" xmlns="http://www.w3.org/2000/svg" viewBox="0 0 257 196" preserveAspectRatio="xMidYMid meet">
<path d="M0 0 C84.81 0 169.62 0 257 0 C257 64.68 257 129.36 257 196 C172.19 196 87.38 196 0 196 C0 131.32 0 66.64 0 0 Z " fill="#FDFEFE" transform="translate(0,0)"/>
<path d="M0 0 C1.982 1.982 2.685 3.327 3.875 5.812 C8.721 14.68 16.602 21.681 23.771 28.679 C35.097 39.763 44.927 52.982 45.25 69.375 C44.976 82.728 40.532 94.233 31.195 104.031 C20.496 113.627 8.577 115.86 -5.359 115.41 C-17.032 114.655 -26.477 108.072 -34.25 99.688 C-43.199 88.625 -45.297 75.783 -44 62 C-40.941 47.162 -29.917 35.813 -19.495 25.536 C-11.644 17.794 -4.53 10.193 0 0 Z " fill="#039CDE" transform="translate(120,1)"/>
<path d="M0 0 C27.919 0 27.919 0 35.938 6.312 C40.62 12.414 41.531 17.821 41.438 25.312 C41.431 26.15 41.424 26.988 41.417 27.852 C41.219 35.482 40.079 41.754 34.688 47.438 C22.081 54.767 18.076 52 0 52 C0 34.84 0 17.68 0 0 Z " fill="#069DDE" transform="translate(0,130)"/>
<path d="M0 0 C5.826 3.365 10.449 8.776 12.578 15.164 C13.628 22.496 11.64 28.066 7.578 34.164 C3.472 38.876 -1.311 40.775 -7.422 41.539 C-11.311 41.053 -13.379 39.584 -16.422 37.164 C-17.082 36.174 -17.742 35.184 -18.422 34.164 C-18.752 40.434 -19.082 46.704 -19.422 53.164 C-23.052 53.164 -26.682 53.164 -30.422 53.164 C-30.521 47.899 -30.594 42.634 -30.642 37.368 C-30.662 35.58 -30.689 33.791 -30.724 32.003 C-30.773 29.421 -30.795 26.84 -30.812 24.258 C-30.833 23.468 -30.854 22.678 -30.875 21.864 C-30.878 15.117 -28.901 9.938 -24.387 4.887 C-23.718 4.339 -23.049 3.791 -22.359 3.227 C-21.688 2.661 -21.016 2.095 -20.324 1.512 C-14.906 -2.327 -6.093 -2.103 0 0 Z " fill="#089EDE" transform="translate(154.421875,142.8359375)"/>
<path d="M0 0 C6.125 6.301 7.599 11.216 7.475 20.039 C7.412 21.799 7.412 21.799 7.348 23.594 C7.325 24.798 7.303 26.002 7.279 27.242 C7.221 30.194 7.139 33.143 7.035 36.094 C3.735 36.094 0.435 36.094 -2.965 36.094 C-2.965 34.114 -2.965 32.134 -2.965 30.094 C-3.625 30.094 -4.285 30.094 -4.965 30.094 C-5.274 30.96 -5.274 30.96 -5.59 31.844 C-7.549 35.05 -9.656 36.346 -12.965 38.094 C-18.441 39.007 -21.687 37.613 -26.105 34.59 C-30.701 30.892 -34.565 26.348 -35.301 20.359 C-35.386 13.782 -35.196 8.371 -30.965 3.094 C-22.09 -5.218 -10.342 -7.173 0 0 Z " fill="#059CDE" transform="translate(205.96484375,145.90625)"/>
<path d="M0 0 C11.159 9.218 27.764 23.023 31 38 C32.054 51.42 32.054 51.42 29 56 C28.34 56 27.68 56 27 56 C25.495 54.138 24.089 52.264 22.691 50.324 C17.088 42.798 10.651 36.341 3.938 29.812 C2.229 28.14 0.524 26.464 -1.18 24.787 C-2.227 23.756 -3.278 22.729 -4.332 21.705 C-7.342 18.757 -8.775 17.104 -9.625 12.938 C-8.662 6.87 -4.488 3.927 0 0 Z " fill="#F9FCFE" transform="translate(120,26)"/>
<path d="M0 0 C3.63 0 7.26 0 11 0 C11.049 1.758 11.098 3.517 11.148 5.328 C11.223 7.635 11.299 9.943 11.375 12.25 C11.406 13.409 11.437 14.568 11.469 15.762 C11.507 16.877 11.546 17.992 11.586 19.141 C11.617 20.167 11.649 21.193 11.681 22.251 C12 25 12.503 26.689 14 29 C17.083 30.542 19.609 30.297 23 30 C26.593 26.527 27.121 22.714 27.316 17.895 C27.358 16.912 27.4 15.929 27.443 14.916 C27.483 13.892 27.522 12.868 27.562 11.812 C27.606 10.777 27.649 9.741 27.693 8.674 C27.799 6.116 27.9 3.558 28 1 C31.3 1 34.6 1 38 1 C38.146 5.333 38.234 9.665 38.312 14 C38.354 15.221 38.396 16.441 38.439 17.699 C38.54 25.13 38.07 30.337 33 36 C27.605 41.009 23.153 41.35 16.016 41.281 C10.56 40.772 7.558 38.558 3.688 34.688 C-0.778 27.576 -0.245 20.202 -0.125 12.062 C-0.116 10.902 -0.107 9.741 -0.098 8.545 C-0.074 5.697 -0.038 2.848 0 0 Z " fill="#039CDE" transform="translate(82,142)"/>
<path d="M0 0 C3.997 1.58 6.285 4.213 9.125 7.375 C10.428 8.81 10.428 8.81 11.758 10.273 C15.49 14.812 16.471 17.88 16.309 23.688 C15.71 28.176 13.891 31.382 10.457 34.32 C5.946 37.273 2.31 37.59 -3 37 C-7.7 35.283 -10.21 33.134 -13 29 C-14.487 24.538 -14.913 20.646 -14 16 C-11.776 12.231 -9.021 9.151 -6 6 C-5.384 5.353 -4.768 4.706 -4.133 4.039 C-2.784 2.664 -1.397 1.327 0 0 Z " fill="#FBFDFE" transform="translate(120,68)"/>
<path d="M0 0 C3.3 0 6.6 0 10 0 C10.66 1.98 11.32 3.96 12 6 C12.389 5.567 12.779 5.134 13.18 4.688 C16.744 1.139 19.124 -0.43 24.25 -0.438 C27.146 -0.289 29.224 0.075 32 1 C32 5.29 32 9.58 32 14 C30.35 13.34 28.7 12.68 27 12 C24.509 11.579 24.509 11.579 22 11.562 C21.175 11.523 20.35 11.483 19.5 11.441 C15.533 12.328 14.317 13.643 12 17 C11.25 21.101 11.209 25.151 11.188 29.312 C11.162 30.435 11.137 31.557 11.111 32.713 C11.053 35.475 11.023 38.237 11 41 C7.37 41 3.74 41 0 41 C0 27.47 0 13.94 0 0 Z " fill="#089EDE" transform="translate(46,142)"/>
<path d="M0 0 C12.851 0 12.851 0 17.141 3.992 C19.734 8.188 19.553 11.604 19.438 16.438 C19.445 17.271 19.452 18.104 19.459 18.963 C19.407 24.019 18.852 27.659 16 32 C13 34 13 34 0 34 C0 22.78 0 11.56 0 0 Z " fill="#FBFDFE" transform="translate(11,139)"/>
<path d="M0 0 C3.3 0 6.6 0 10 0 C10 17.16 10 34.32 10 52 C6.7 52 3.4 52 0 52 C0 34.84 0 17.68 0 0 Z " fill="#009BDD" transform="translate(218,130)"/>
<path d="M0 0 C3.584 1.532 6.029 3.667 8.812 6.375 C9.623 7.146 10.434 7.917 11.27 8.711 C13 11 13 11 12.98 13.07 C11.795 15.404 10.443 16.742 8.5 18.5 C3.28 23.493 -0.789 29.152 -5 35 C-8 34 -8 34 -9.156 32.312 C-11.343 26.319 -10.931 19.587 -8.797 13.656 C-6.333 8.629 -3.587 4.305 0 0 Z " fill="#F7FBFD" transform="translate(100,47)"/>
<path d="M0 0 C2.875 2.5 2.875 2.5 5 5 C5.33 5.33 5.66 5.66 6 6 C6.625 10.467 6.243 13.317 3.625 16.938 C0.899 19.806 -1.125 20.544 -5.062 20.75 C-8.637 20.47 -9.974 20.017 -13.062 18 C-15.455 14.295 -16.441 11.414 -16 7 C-14.317 3.504 -12.982 1.611 -9.688 -0.438 C-6.061 -1.197 -3.584 -0.96 0 0 Z " fill="#F7FBFD" transform="translate(197,153)"/>
<path d="M0 0 C2.936 2.456 4.606 4.198 5.438 8 C5.661 11.693 5.108 13.831 3.125 16.938 C-0.384 20.343 -3.018 20.331 -7.738 20.293 C-11.054 19.863 -12.75 18.391 -15 16 C-16.614 12.771 -16.596 9.49 -16 6 C-12.026 -0.925 -7.361 -2.031 0 0 Z " fill="#F9FCFE" transform="translate(151,153)"/>
<path d="M0 0 C1.32 0.33 2.64 0.66 4 1 C4.33 1.99 4.66 2.98 5 4 C5.66 2.68 6.32 1.36 7 0 C8.32 0 9.64 0 11 0 C11 3.3 11 6.6 11 10 C10.34 10 9.68 10 9 10 C8.67 8.68 8.34 7.36 8 6 C7.67 7.32 7.34 8.64 7 10 C6.01 10 5.02 10 4 10 C3.67 9.34 3.34 8.68 3 8 C2.67 8.66 2.34 9.32 2 10 C1.34 10 0.68 10 0 10 C0 6.7 0 3.4 0 0 Z " fill="#14A0DF" transform="translate(246,130)"/>
<path d="M0 0 C2.97 0 5.94 0 9 0 C9 0.66 9 1.32 9 2 C8.01 2 7.02 2 6 2 C6 4.64 6 7.28 6 10 C5.01 10 4.02 10 3 10 C3 7.36 3 4.72 3 2 C2.01 2 1.02 2 0 2 C0 1.34 0 0.68 0 0 Z " fill="#32AAE2" transform="translate(236,130)"/>
<path d="M0 0 C1.32 0.33 2.64 0.66 4 1 C3.856 1.557 3.711 2.114 3.562 2.688 C2.972 5.114 2.477 7.549 2 10 C1.34 10 0.68 10 0 10 C0 6.7 0 3.4 0 0 Z " fill="#079BDE" transform="translate(246,130)"/>
<path d="M0 0 C0.99 0 1.98 0 3 0 C4.245 2.491 3.777 3.411 3 6 C2.01 6 1.02 6 0 6 C-0.382 4.344 -0.714 2.675 -1 1 C-0.67 0.67 -0.34 0.34 0 0 Z " fill="#1DA4E0" transform="translate(250,134)"/>
</svg>